# xmcd
#
# Track frame offsets:
#	150
#	14599
#	29800
#	45423
#	63197
#	79426
#	97789
#	112197
#	129388
#	144451
#	160289
#	182491
#	199674
#	213812
#	235737
#	255429
#	266641
#	281623
#
# Disc length: 3982 seconds
#
# Revision: 1
# Processed by: cddbd v1.4PL0 Copyright (c) Steve Scherf et al.
# Submitted via: audiograbber 1.81.03
#
DISCID=fa0f8c12
DTITLE=Various Artist - A Taste of Country 2
DYEAR=2002
DGENRE=Country
TTITLE0=Chely Wright - Jezabel
TTITLE1=Tania Kernaghan - Steal Away
TTITLE2=Gary Allan - Man of Me
TTITLE3=Sara Storer - Buffalo Bill
TTITLE4=John Williamson - Campfire on the Road
TTITLE5=Willie Nelson - Time After Time
TTITLE6=Josh Arnold - Hardlivin'
TTITLE7=Beccy Cole - Storm in a D Cup
TTITLE8=Toby Keith - My List
TTITLE9=Catherine Britt - 46 Miles from Alice
TTITLE10=Karl Broadie - Nowhere Now Here
TTITLE11=Adam Harvey - The Shake of a Hand
TTITLE12=Melinda Schneider - (Hey You) Count to Three
TTITLE13=Pat Green - Threadbare Gypsy Soul
TTITLE14=Tamara Stewart - Simple Things
TTITLE15=Dan Brodie and The Broken Arrows - Sarah
TTITLE16=Gina Jeffreys - Break My Heart
TTITLE17=Kieran Lancini - A matter of Time
EXTD=YEAR: 2002 ID3G:  02 
EXTT0=Chely Wright
EXTT1=Tania Kernaghan
EXTT2=Gary Allan
EXTT3=Sara Storer
EXTT4=John Williamson
EXTT5=Willie Nelson
EXTT6=Josh Arnold
EXTT7=Beccy Cole
EXTT8=Toby Keith
EXTT9=Catherine Britt
EXTT10=Karl Broadie
EXTT11=Adam Harvey
EXTT12=Melinda Schneider
EXTT13=Pat Green
EXTT14=Tamara Stewart
EXTT15=Dan Broadie and The Broken Arrows
EXTT16=Gina Jeffreys
EXTT17=Kieran Lancini
PLAYORDER=
